{"title":"NoN Stop (2014) TS (SUB) x264 - P2PDL","uid":9687009,"size":1023416383,"categoryP":"video","categoryS":"movies","magnet":"?xt=urn:btih:70c520e604db3fdfef36332444b79bc12b2e2b5a&amp;dn=NoN+Stop+%282014%29+TS+%28SUB%29+x264+-+P2PDL&amp;tr=udp%3A%2F%2Ftracker.openbittorrent.com%3A80&amp;tr=udp%3A%2F%2Fopen.demonii.com%3A1337&amp;tr=udp%3A%2F%2Ftracker.coppersurfer.tk%3A6969&amp;tr=udp%3A%2F%2Fexodus.desync.com%3A6969","seeders":5,"leechers":0,"uploader":"TeX","files":3,"time":1393787205,"description":" &lt;a href=&quot;http://i.imgur.com/jyBPjTu.jpg&quot; rel=&quot;nofollow&quot; target=&quot;_NEW&quot;&gt;http://i.imgur.com/jyBPjTu.jpg&lt;/a&gt;\n &lt;a href=&quot;\nhttp://www.imdb.com/title/tt2024469/&quot; rel=&quot;nofollow&quot; target=&quot;_NEW&quot;&gt;\nhttp://www.imdb.com/title/tt2024469/&lt;/a&gt;\n\nAn air marshal springs into action during a transatlantic flight after receiving a series of text messages that put his fellow passengers at risk unless the airline transfers $150 million into an off-shore account.\n\nFormat : AVI\nFormat/Info : Audio Video Interleave\nFile size : 976 MiB\nDuration : 1h 39mn\nOverall bit rate : 1 366 Kbps\nWriting application : VirtualDubMod 1.5.10.2 (build 2542/release)\nWriting library : VirtualDubMod build 2542/release\n\nVideo\nID : 0\nFormat : MPEG-4 Visual\nFormat profile : Advanced Simple@L5\nFormat settings, BVOP : 1\nFormat settings, QPel : No\nFormat settings, GMC : No warppoints\nFormat settings, Matrix : Default (H.263)\nMuxing mode : Packed bitstream\nCodec ID : XVID\nCodec ID/Hint : XviD\nDuration : 1h 39mn\nBit rate : 1 232 Kbps\nWidth : 1 920 pixels\nHeight : 1 080 pixels\nDisplay aspect ratio : 16:9\nFrame rate : 15.000 fps\nColor space : YUV\nChroma subsampling : 4:2:0\nBit depth : 8 bits\nScan type : Progressive\nCompression mode : Lossy\nBits/(Pixel*Frame) : 0.040\nStream size : 880 MiB (90%)\nWriting library : XviD 64\n\nAudio\nID : 1\nFormat : MPEG Audio\nFormat version : Version 1\nFormat profile : Layer 3\nMode : Joint stereo\nCodec ID : 55\nCodec ID/Hint : MP3\nDuration : 1h 39mn\nBit rate mode : Constant\nBit rate : 128 Kbps\nChannel(s) : 2 channels\nSampling rate : 48.0 KHz\nCompression mode : Lossy\nStream size : 91.5 MiB (9%)\nAlignment : Aligned on interleaves\nInterleave, duration : 67 ms (1.00 video frame)\nInterleave, preload duration : 504 ms\nWriting library : LAME3.98\n &lt;a href=&quot;\nhttp://i.imgur.com/QTopYBt.jpg&quot; rel=&quot;nofollow&quot; target=&quot;_NEW&quot;&gt;\nhttp://i.imgur.com/QTopYBt.jpg&lt;/a&gt; &lt;a href=&quot;\nhttp://i.imgur.com/MmISh1R.jpg&quot; rel=&quot;nofollow&quot; target=&quot;_NEW&quot;&gt;\nhttp://i.imgur.com/MmISh1R.jpg&lt;/a&gt; &lt;a href=&quot;\nhttp://i.imgur.com/KgHoANT.jpg&quot; rel=&quot;nofollow&quot; target=&quot;_NEW&quot;&gt;\nhttp://i.imgur.com/KgHoANT.jpg&lt;/a&gt;","torrent":{"xt":"urn:btih:70c520e604db3fdfef36332444b79bc12b2e2b5a","amp;dn":"NoN+Stop+%282014%29+TS+%28SUB%29+x264+-+P2PDL","amp;tr":["udp%3A%2F%2Ftracker.openbittorrent.com%3A80","udp%3A%2F%2Fopen.demonii.com%3A1337","udp%3A%2F%2Ftracker.coppersurfer.tk%3A6969","udp%3A%2F%2Fexodus.desync.com%3A6969"],"infoHash":"70c520e604db3fdfef36332444b79bc12b2e2b5a","infoHashBuffer":{"type":"Buffer","data":[112,197,32,230,4,219,63,223,239,54,51,36,68,183,155,193,43,46,43,90]},"announce":[],"urlList":[]}}